<?xml version="1.0" encoding="UTF-8"?>
<svg xmlns="http://www.w3.org/2000/svg" xmlns:xlink="http://www.w3.org/1999/xlink" width="46px" height="50px" viewBox="0 0 46 50" version="1.1">
<g id="surface1">
<path style=" stroke:none;fill-rule:nonzero;fill:rgb(0%,0%,0%);fill-opacity:1;" d="M 15.9375 28.382812 C 8.96875 23.460938 6.535156 17.28125 8.691406 10.5 C 10.648438 4.339844 16.3125 0.164062 22.777344 0.078125 C 29.339844 -0.0078125 35.121094 4.050781 37.234375 10.214844 C 39.554688 16.953125 37.207031 23.070312 30.441406 28.140625 C 32.742188 29.519531 35.222656 30.746094 37.410156 32.386719 C 42.144531 35.941406 44.8125 40.824219 45.882812 46.597656 C 45.925781 46.828125 45.941406 47.058594 45.957031 47.289062 C 46.074219 48.484375 46.160156 49.75 44.523438 49.910156 C 42.941406 50.066406 42.683594 48.859375 42.507812 47.648438 C 41.160156 38.117188 33.265625 31.046875 23.660156 30.773438 C 13.910156 30.484375 5.578125 37.035156 3.652344 46.523438 C 3.5625 46.972656 3.519531 47.433594 3.460938 47.894531 C 3.304688 49.089844 2.898438 50.097656 1.417969 49.910156 C 0.0429688 49.722656 -0.0859375 48.699219 0.0429688 47.5625 C 0.507812 43.402344 2.070312 39.671875 4.621094 36.347656 C 7.503906 32.585938 11.257812 29.980469 15.953125 28.382812 Z M 23.066406 3.519531 C 16.589844 3.519531 11.445312 8.585938 11.429688 14.964844 C 11.429688 21.371094 16.601562 26.597656 22.933594 26.582031 C 29.339844 26.582031 34.539062 21.445312 34.570312 15.078125 C 34.597656 8.65625 29.46875 3.519531 23.066406 3.503906 Z M 23.066406 3.519531 "/>
</g>
</svg>
