<?xml version="1.0" encoding="utf-8"?>
<!-- Generator: Adobe Illustrator 27.8.0, SVG Export Plug-In . SVG Version: 6.00 Build 0)  -->
<svg version="1.1" id="Calque_1" xmlns="http://www.w3.org/2000/svg" xmlns:xlink="http://www.w3.org/1999/xlink" x="0px" y="0px"
	 viewBox="0 0 1064 1280" style="enable-background:new 0 0 1064 1280;" xml:space="preserve">
<style type="text/css">
	.st0{fill:#FFFFFF;}
</style>
<g transform="translate(0.000000,1280.000000) scale(0.100000,-0.100000)">
	<path class="st0" d="M4495,12788c-65-23-124-77-155-143c-19-38-20-71-20-673c0-700-3-665,67-742c68-76,98-84,331-88l202-4v-258
		v-258l-72-7c-1048-96-2036-491-2841-1137c-53-43-101-78-105-78s-36,28-70,63l-62,62l91,90c114,114,131,140,131,209c0,41-6,65-25,98
		c-37,63-604,624-649,643c-49,20-104,19-153-4s-799-772-814-814c-16-40-13-102,4-145c20-46,579-611,643-649c48-29,131-34,174-12
		c12,6,68,56,123,110l101,99l59-60l59-59l-85-88C947,8440,543,7769,290,7048C55,6384-42,5594,20,4865c130-1508,891-2882,2105-3797
		C2924,465,3857,110,4880,18c187-16,693-16,880,0c914,82,1735,366,2480,857c1145,755,1955,1915,2260,3235c203,877,182,1781-62,2658
		c-136,492-382,1028-673,1471c-345,525-815,1017-1325,1386c-577,418-1223,712-1915,873c-237,56-544,104-752,118l-103,7v258v257
		l203,4c232,4,262,12,330,88c70,77,67,42,67,742c0,710,3,675-74,751c-80,77-19,72-891,74C4778,12798,4515,12795,4495,12788z
		 M5687,9825c971-83,1854-452,2588-1084c732-630,1254-1499,1459-2431c81-368,101-562,101-990c0-380-8-489-61-790
		c-191-1099-797-2099-1689-2790c-572-443-1270-752-1975-874c-311-54-400-61-790-61s-479,7-790,61c-1118,194-2143,825-2831,1744
		c-486,648-774,1374-876,2210c-26,208-25,793,0,1000c89,717,303,1326,670,1910c543,862,1382,1528,2342,1860
		C4425,9794,5078,9877,5687,9825z"/>
	<path class="st0" d="M5270,9360v-240h50h50v240v240h-50h-50V9360z"/>
	<path class="st0" d="M3180,9028c-19-12-36-23-38-24s217-387,234-412c5-7,84,39,84,49c0,14-230,409-238,409
		C3218,9050,3199,9040,3180,9028z"/>
	<path class="st0" d="M7296,8844c-65-113-117-206-115-208c20-15,81-47,83-45c11,13,237,411,234,413c-12,9-76,46-79,46
		S7361,8957,7296,8844z"/>
	<path class="st0" d="M5247,8788l-75-143l-11-440c-6-242-16-593-21-780c-18-611-29-1035-36-1303l-7-263l-54-26
		c-174-86-304-298-305-502c-2-162,50-296,156-409c118-125,258-186,426-186s308,61,426,186c147,156,196,379,127,580
		c-16,46-46,110-67,141c-49,73-140,156-211,191l-55,27v57c0,31-16,659-35,1394l-35,1337l-70,141c-39,77-72,140-74,140
		C5323,8930,5288,8866,5247,8788z M5408,5483c71-33,114-132,93-210c-22-80-101-143-181-143c-48,0-110,31-143,69
		c-31,38-51,103-43,144C5161,5477,5285,5541,5408,5483z"/>
	<path class="st0" d="M1621,7466c-12-18-21-37-21-42c0-10,389-237,404-236c5,0,19,18,32,39l23,39l-203,117c-112,64-206,117-209,117
		S1632,7485,1621,7466z"/>
	<path class="st0" d="M8790,7386c-107-62-195-117-197-122s7-26,20-46l22-37l135,78c74,42,167,96,207,119l71,42l-21,40
		c-12,22-26,40-32,39C8990,7499,8897,7448,8790,7386z"/>
	<path class="st0" d="M1049,5373c-4-15,0-93,5-93c3,0,110,0,236,0h230v48v47h-235C1156,5375,1050,5374,1049,5373z"/>
	<path class="st0" d="M9120,5328v-48h241h240l-3,45l-3,46l-238,2l-237,2V5328z"/>
	<path class="st0" d="M1805,3353c-110-63-202-116-203-118c-6-6,8-39,27-64l18-24l206,119l206,119l-21,35c-12,19-24,38-27,42
		S1915,3417,1805,3353z"/>
	<path class="st0" d="M8611,3429c-13-22-19-44-15-49c14-13,393-230,401-230c5,0,18,18,30,40l21,40l-96,57c-53,31-146,85-205,120
		c-60,34-110,63-111,63S8623,3452,8611,3429z"/>
	<path class="st0" d="M3258,1854l-117-205l41-25c22-14,44-22,48-17c12,13,230,395,230,403c0,6-73,51-81,50
		C3377,2059,3322,1967,3258,1854z"/>
	<path class="st0" d="M7220,2038c-19-12-37-23-39-24c-2-2,224-400,235-413c2-2,62,30,83,45c4,4-232,414-239,414
		C7257,2060,7239,2050,7220,2038z"/>
	<path class="st0" d="M5270,1290v-240h50h50v240v240h-50h-50V1290z"/>
</g>
</svg>
